<?xml version="1.0" encoding="UTF-8" standalone="no"?>
<svg
   xmlns:dc="http://purl.org/dc/elements/1.1/"
   xmlns:cc="http://creativecommons.org/ns#"
   xmlns:rdf="http://www.w3.org/1999/02/22-rdf-syntax-ns#"
   xmlns:svg="http://www.w3.org/2000/svg"
   xmlns="http://www.w3.org/2000/svg"
   xmlns:sodipodi="http://sodipodi.sourceforge.net/DTD/sodipodi-0.dtd"
   xmlns:inkscape="http://www.inkscape.org/namespaces/inkscape"
   viewBox="0 0 80 80"
   height="80mm"
   width="80mm"
   version="1.1"
   id="svg14"
   sodipodi:docname="elimage_black.svg"
   inkscape:version="0.92.1 r15371">
  <metadata
     id="metadata20">
    <rdf:RDF>
      <cc:Work
         rdf:about="">
        <dc:format>image/svg+xml</dc:format>
        <dc:type
           rdf:resource="http://purl.org/dc/dcmitype/StillImage" />
      </cc:Work>
    </rdf:RDF>
  </metadata>
  <defs
     id="defs18" />
  <sodipodi:namedview
     pagecolor="#ffffff"
     bordercolor="#666666"
     borderopacity="1"
     objecttolerance="10"
     gridtolerance="10"
     guidetolerance="10"
     inkscape:pageopacity="0"
     inkscape:pageshadow="2"
     inkscape:window-width="640"
     inkscape:window-height="480"
     id="namedview16"
     showgrid="false"
     inkscape:zoom="9.6537753"
     inkscape:cx="121.35997"
     inkscape:cy="41.774197"
     inkscape:current-layer="svg14" />
  <path
     d="M40 3.575l31.701 18.303L40 40.18 8.299 21.878z"
     fill="#f08880"
     opacity=".254"
     id="path2" />
  <path
     d="M71.701 21.878v36.605L40 76.786V40.18z"
     opacity=".488"
     fill="#f08880"
     fill-opacity=".811"
     id="path4" />
  <path
     d="M8.299 21.878l3.17 1.83V36.52l11.095-6.406 3.17 1.83L11.47 40.18v12.812l25.36-14.642L40 40.18 8.299 58.483z"
     fill="#f06278"
     fill-opacity=".817"
     opacity=".434"
     id="path6" />
  <path
     d="M8.299 21.878l3.17 1.83v32.945L40 73.125v3.66L8.299 58.484z"
     opacity=".356"
     fill="#f06278"
     fill-opacity=".817"
     id="path8" />
  <g
     aria-label="image"
     transform="skewY(30) scale(.94328 1.06013)"
     style="font-weight:400;font-size:6.57800007px;line-height:1.25;font-family:sans-serif;letter-spacing:0;word-spacing:0;stroke-width:0.164"
     id="text12">
    <path
       d="m 23.960093,42.672667 q 0.138138,0 0.236808,0.09867 0.09867,0.07894 0.09867,0.23023 0,0.13156 -0.105248,0.236808 -0.105248,0.09209 -0.23023,0.09209 -0.144716,0 -0.236808,-0.09209 -0.09867,-0.09867 -0.09867,-0.236808 0,-0.151294 0.09867,-0.23023 0.09209,-0.09867 0.236808,-0.09867 z m -0.19734,1.223508 h 0.39468 v 3.400826 h -0.39468 z"
       style="font-family:'苹方';-inkscape-font-specification:'苹方'"
       id="path4497" />
    <path
       d="m 26.565598,43.804083 q 0.809094,0 1.065636,0.697268 0.177606,-0.342056 0.453882,-0.519662 0.256542,-0.177606 0.618332,-0.177606 0.539396,0 0.85514,0.335478 0.309166,0.342056 0.309166,0.934076 v 2.223364 h -0.39468 v -2.17074 q 0,-0.486772 -0.19734,-0.72358 -0.217074,-0.256542 -0.677534,-0.256542 -0.374946,0 -0.618332,0.282854 -0.249964,0.269698 -0.249964,0.703846 v 2.164162 h -0.401258 v -2.17074 q 0,-0.980122 -0.848562,-0.980122 -0.388102,0 -0.638066,0.309166 -0.26312,0.302588 -0.26312,0.749892 v 2.091804 h -0.39468 v -3.400826 h 0.39468 v 0.513084 q 0.36179,-0.605176 0.9867,-0.605176 z"
       style="font-family:'苹方';-inkscape-font-specification:'苹方'"
       id="path4499" />
    <path
       d="m 32.136444,43.804083 q 0.717002,0 1.059058,0.388102 0.302588,0.335478 0.302588,0.914342 v 2.190474 h -0.374946 v -0.651222 q -0.210496,0.302588 -0.552552,0.506506 -0.401258,0.236808 -0.88803,0.236808 -0.499928,0 -0.809094,-0.256542 -0.309166,-0.26312 -0.309166,-0.703846 0,-0.651222 0.532818,-0.947232 0.42757,-0.243386 1.137994,-0.243386 l 0.868296,-0.0066 v -0.124982 q 0,-0.966966 -0.9867,-0.966966 -0.453882,0 -0.710424,0.190762 -0.289432,0.190762 -0.348634,0.59202 H 30.66955 q 0.07894,-0.572286 0.480194,-0.85514 0.368368,-0.26312 0.9867,-0.26312 z m 0.966966,1.749748 -0.848562,0.0066 q -1.289288,0.0066 -1.289288,0.861718 0,0.282854 0.217074,0.46046 0.210496,0.177606 0.578864,0.177606 0.532818,0 0.947232,-0.355212 0.39468,-0.348634 0.39468,-0.75647 z"
       style="font-family:'苹方';-inkscape-font-specification:'苹方'"
       id="path4501" />
    <path
       d="m 35.732863,43.804083 q 0.841984,0 1.21693,0.776204 v -0.684112 h 0.39468 v 3.150862 q 0,1.6445 -1.526096,1.6445 -0.664378,0 -1.032746,-0.289432 -0.348634,-0.276276 -0.434148,-0.815672 h 0.39468 q 0.07236,0.381524 0.315744,0.565708 0.26312,0.210496 0.75647,0.210496 1.131416,0 1.131416,-1.269554 v -0.651222 q -0.374946,0.776204 -1.21693,0.776204 -0.710424,0 -1.137994,-0.506506 -0.39468,-0.473616 -0.39468,-1.197196 0,-0.72358 0.39468,-1.197196 0.42757,-0.513084 1.137994,-0.513084 z m 0.04605,0.335478 q -0.565708,0 -0.874874,0.407836 -0.302588,0.368368 -0.302588,0.966966 0,0.578864 0.282854,0.947232 0.309166,0.414414 0.88803,0.414414 0.565708,0 0.881452,-0.39468 0.29601,-0.374946 0.29601,-0.966966 0,-0.59202 -0.29601,-0.966966 -0.309166,-0.407836 -0.874874,-0.407836 z"
       style="font-family:'苹方';-inkscape-font-specification:'苹方'"
       id="path4503" />
    <path
       d="m 39.548,43.804083 q 0.809094,0 1.210352,0.545974 0.36179,0.486772 0.388102,1.361646 h -2.76276 q 0.03289,0.62491 0.335478,0.980122 0.315744,0.355212 0.841984,0.355212 0.453882,0 0.749892,-0.243386 0.236808,-0.203918 0.36179,-0.598598 h 0.401258 q -0.118404,0.49335 -0.453882,0.809094 -0.414414,0.374946 -1.059058,0.374946 -0.717002,0 -1.144572,-0.486772 -0.440726,-0.486772 -0.440726,-1.309022 0,-0.749892 0.420992,-1.256398 0.434148,-0.532818 1.15115,-0.532818 z m 0.0066,0.342056 q -0.506506,0 -0.809094,0.348634 -0.309166,0.348634 -0.355212,0.894608 h 2.341768 q -0.09867,-1.243242 -1.177462,-1.243242 z"
       style="font-family:'苹方';-inkscape-font-specification:'苹方'"
       id="path4505" />
  </g>
</svg>
