<?xml version="1.0" encoding="UTF-8" standalone="no"?>
<svg
   xmlns:dc="http://purl.org/dc/elements/1.1/"
   xmlns:cc="http://creativecommons.org/ns#"
   xmlns:rdf="http://www.w3.org/1999/02/22-rdf-syntax-ns#"
   xmlns:svg="http://www.w3.org/2000/svg"
   xmlns="http://www.w3.org/2000/svg"
   id="svg8"
   version="1.1"
   viewBox="0 0 40 40"
   height="40mm"
   width="40mm">
  <defs
     id="defs2" />
  <metadata
     id="metadata5">
    <rdf:RDF>
      <cc:Work
         rdf:about="">
        <dc:format>image/svg+xml</dc:format>
        <dc:type
           rdf:resource="http://purl.org/dc/dcmitype/StillImage" />
        <dc:title></dc:title>
      </cc:Work>
    </rdf:RDF>
  </metadata>
  <g
     transform="translate(0,-257)"
     style="display:inline"
     id="layer4">
    <path
       transform="matrix(1.202951,0.70827142,-0.70827142,1.202951,-30.855014,206.35037)"
       d="m 64.349504,12.926019 7.017114,12.148421 -7.012285,12.15121 -14.029398,0.0028 -7.017114,-12.148421 7.012284,-12.15121 z"
       id="path4591"
       style="opacity:0.31499999;fill:#cd5c5c;fill-opacity:1;fill-rule:nonzero;stroke:none;stroke-width:0.63728827;stroke-linecap:round;stroke-miterlimit:4;stroke-dasharray:none;stroke-dashoffset:0;stroke-opacity:1" />
  </g>
  <g
     transform="translate(0,-257)"
     id="layer5">
    <path
       id="path4619"
       d="m 37.399164,267.47666 -0.163141,19.58398 -17.041793,9.65069 0.163141,-19.58397 17.041793,-9.6507"
       style="opacity:0.26400003;fill:#cd5c5c;fill-opacity:1;stroke:none;stroke-width:0.47822124px;stroke-linecap:butt;stroke-linejoin:miter;stroke-opacity:1" />
  </g>
  <g
     transform="translate(0,-257)"
     id="layer2">
    <g
       id="text4522"
       style="font-style:normal;font-variant:normal;font-weight:normal;font-stretch:normal;font-size:26.07968521px;line-height:1.25;font-family:'宋体';-inkscape-font-specification:'宋体';letter-spacing:0px;word-spacing:0px;writing-mode:lr-tb;fill:#000000;fill-opacity:1;stroke:none;stroke-width:0.61124259"
       aria-label="L">
      <path
         id="path4498"
         style="font-style:normal;font-variant:normal;font-weight:normal;font-stretch:normal;font-family:'宋体';-inkscape-font-specification:'宋体';writing-mode:lr-tb;stroke-width:0.61124259"
         d="m 23.002355,284.5218 q 0,0.4075 0.203748,0.61124 0.305621,0.20375 0.713116,0.20375 h 2.750592 q 1.426233,0 2.44497,-0.81499 1.018738,-0.91686 1.528107,-2.75059 l 0.509369,0.20375 -0.916864,3.97307 H 19.742395 v -0.61124 h 0.713116 q 0.509369,0 0.713116,-0.20375 0.203748,-0.20374 0.203748,-0.61124 v -14.56795 q 0,-0.40749 -0.203748,-0.61124 -0.203747,-0.20375 -0.713116,-0.20375 h -0.611243 v -0.61124 h 4.788068 v 0.61124 h -0.713117 q -0.407495,0 -0.713116,0.20375 -0.203748,0.20375 -0.203748,0.61124 z" />
    </g>
  </g>
  <g
     style="display:inline"
     transform="translate(0,-257)"
     id="layer3">
    <text
       xml:space="preserve"
       style="font-style:normal;font-weight:normal;font-size:26.07968521px;line-height:1.25;font-family:sans-serif;letter-spacing:0px;word-spacing:0px;writing-mode:lr-tb;fill:#000000;fill-opacity:1;stroke:none;stroke-width:0.61124259"
       x="8.6399641"
       y="286.35553"
       id="text4527"><tspan
         id="tspan4525"
         x="8.6399641"
         y="286.35553"
         style="font-style:normal;font-variant:normal;font-weight:normal;font-stretch:normal;font-family:'宋体';-inkscape-font-specification:'宋体';writing-mode:lr-tb;stroke-width:0.61124259">E</tspan></text>
    <g
       id="text4550"
       style="font-style:normal;font-weight:normal;font-size:26.07968521px;line-height:1.25;font-family:sans-serif;letter-spacing:0px;word-spacing:0px;writing-mode:lr-tb;fill:#000000;fill-opacity:1;stroke:none;stroke-width:0.61124259"
       aria-label="E">
      <path
         id="path4495"
         style="font-style:normal;font-variant:normal;font-weight:normal;font-stretch:normal;font-family:'宋体';-inkscape-font-specification:'宋体';writing-mode:lr-tb;stroke-width:0.61124259"
         d="m 9.4549543,269.13886 v -0.61124 h 9.9836297 l 1.120611,3.46371 -0.509369,0.20375 q -0.81499,-1.52811 -1.731854,-2.24123 -0.916864,-0.81499 -2.037475,-0.81499 h -2.852466 q -0.407495,0 -0.713116,0.20375 -0.203748,0.20375 -0.203748,0.61124 v 6.31618 h 2.95434 q 1.018737,0 1.426233,-0.50937 0.509368,-0.50937 0.509368,-1.52811 v -0.61124 h 0.611243 v 6.01055 h -0.611243 v -0.40749 q 0,-1.12062 -0.509368,-1.73186 -0.407496,-0.61124 -1.426233,-0.61124 h -2.95434 v 7.64053 q 0,0.4075 0.203748,0.61124 0.305621,0.20375 0.713116,0.20375 h 2.648718 q 1.528107,0 2.546845,-0.81499 1.120611,-0.91686 1.731854,-2.75059 l 0.509369,0.20375 -1.120612,3.97307 H 9.3530805 v -0.61124 h 0.6112426 q 0.5093689,0 0.7131169,-0.20375 0.203747,-0.20374 0.203747,-0.61124 v -14.56795 q 0,-0.40749 -0.203747,-0.61124 -0.203748,-0.20375 -0.7131169,-0.20375 z" />
    </g>
  </g>
</svg>
