<svg xmlns="http://www.w3.org/2000/svg" viewBox="0 0 80 80" height="80mm" width="80mm"><path d="M40 3.575l31.701 18.303L40 40.18 8.299 21.878z" fill="#f08880" opacity=".254"/><path d="M71.701 21.878l-31.7 18.302v36.606l31.7-18.303V21.878zm-1.968 30.576a.68.68 0 01.541.183c.26.242.4.711.418 1.406l-2.974 1.717c.024.49.144.816.362.977.226.156.528.125.906-.093.326-.188.595-.442.807-.76.17-.263.3-.58.39-.95l.431-.25a3.735 3.735 0 01-.488 1.261 3.257 3.257 0 01-1.14 1.112c-.515.298-.926.338-1.233.123-.316-.21-.474-.646-.474-1.31 0-.604.151-1.198.453-1.781.312-.61.725-1.063 1.24-1.36.29-.168.544-.26.76-.275zm-.132.471c-.173.003-.38.074-.622.213-.364.21-.654.518-.872.925-.221.41-.348.844-.381 1.303l2.52-1.456c-.048-.66-.263-.99-.645-.985zM66.6 54.21v3.811c0 1.327-.548 2.306-1.643 2.939-.477.275-.847.372-1.112.291-.25-.078-.406-.317-.467-.717l.425-.245c.052.278.165.44.34.488.188.06.46-.01.814-.215.812-.47 1.218-1.216 1.218-2.24v-.788c-.27.782-.706 1.347-1.31 1.696-.51.294-.919.326-1.225.095-.284-.219-.425-.62-.425-1.203 0-.584.141-1.149.425-1.694.306-.591.715-1.034 1.225-1.328.604-.349 1.04-.288 1.31.182v-.827l.425-.245zm-1.146 1.079c-.157.008-.337.071-.54.188a2.34 2.34 0 00-.942 1.037 2.927 2.927 0 00-.325 1.358c0 .467.101.79.304.97.222.207.54.19.956-.05.406-.235.722-.576.949-1.026.212-.425.319-.876.319-1.353 0-.478-.107-.807-.32-.986a.532.532 0 00-.4-.138zM61.8 57.052c.13-.001.241.03.333.094.217.146.326.452.326.919v2.65l-.403.233v-.788a4.54 4.54 0 01-.595.956 3.45 3.45 0 01-.956.838c-.359.208-.65.271-.871.193-.222-.085-.333-.304-.333-.66 0-.525.191-1.017.573-1.477.307-.373.716-.707 1.226-1.001l.934-.548v-.151c0-.78-.354-.966-1.062-.557-.326.188-.58.412-.765.672a1.897 1.897 0 00-.375.934l-.418.24c.057-.494.23-.938.517-1.332a3.36 3.36 0 011.062-.932c.322-.186.59-.28.807-.283zm.234 1.799l-.913.535c-.925.54-1.388 1.154-1.388 1.844 0 .228.078.369.233.422.151.056.36.008.624-.145.382-.22.722-.56 1.02-1.018.282-.445.424-.832.424-1.16v-.478zm-4.104.412a.55.55 0 01.288.08c.222.148.333.46.333.938v2.69l-.425.245V60.59c0-.393-.07-.644-.212-.753-.156-.117-.399-.08-.73.11-.268.156-.49.398-.665.727-.18.321-.27.657-.27 1.008v2.617l-.431.25v-2.626c0-.79-.304-1.01-.913-.659-.279.161-.508.418-.687.771a2.25 2.25 0 00-.284 1.07v2.531l-.425.246v-4.115l.425-.245v.621c.26-.638.614-1.087 1.063-1.346.58-.335.963-.274 1.147.182.127-.35.29-.653.488-.91.184-.25.406-.45.666-.6.242-.14.453-.209.632-.206zm-5.6 1.735a.194.194 0 01.117.022c.07.023.106.096.106.218a.707.707 0 01-.113.352.753.753 0 01-.248.254c-.104.06-.189.072-.255.035-.07-.038-.106-.113-.106-.224 0-.122.035-.236.106-.34a.686.686 0 01.255-.267.36.36 0 01.138-.05zm.074 1.407v4.115l-.425.245v-4.114l.425-.246z" opacity=".488" fill="#f08880" fill-opacity=".811"/><path d="M8.299 21.878l3.17 1.83V36.52l11.095-6.406 3.17 1.83L11.47 40.18v12.812l25.36-14.642L40 40.18 8.299 58.483z" fill="#f06278" fill-opacity=".817" opacity=".434"/><g><path d="M8.299 21.878l3.17 1.83v32.945L40 73.125v3.66L8.299 58.484z" opacity=".356" fill="#f06278" fill-opacity=".817"/></g></svg>